<svg version="1" xmlns="http://www.w3.org/2000/svg" width="730.667" height="730.667" viewBox="0 0 548.000000 548.000000"><path d="M299 97.2c-3.6 1.9-23.8 12.8-45 24.3s-41.9 22.7-46.1 24.9c-22.3 11.9-62.5 33.9-62.9 34.4-.3.4-2.3 2-4.5 3.7-2.2 1.6-4.5 3.4-5.1 4-.6.5-2.8 2.3-4.9 4-2.1 1.6-4.3 3.4-4.9 4-.6.5-4.5 3.7-8.6 7s-7.7 6.2-8 6.5c-.3.3-2.2 1.8-4.3 3.3-2 1.6-5 3.9-6.5 5.2-1.5 1.4-3.2 2.8-3.7 3.2-1.4 1.1-9.5 7.7-12.5 10.2-1.4 1.1-3 2.4-3.5 2.8-.6.5-3.5 2.8-6.5 5.3s-6.2 5-7 5.7c-8.6 6.8-18.6 14.9-19 15.4-.3.3-5.2 4.3-11 8.9-5.8 4.5-11.3 9.5-12.2 10.9-3.6 5.3-1.6 11.7 5 16.1 2.1 1.4 4.2 2.9 4.7 3.3.6.4 3.9 2.9 7.5 5.5 3.6 2.5 6.7 4.9 7 5.3.3.3 1.5 1.2 2.8 1.8 1.3.7 3.1 1.9 4 2.8.9.8 6.2 4.7 11.7 8.6 5.5 3.9 10.2 7.4 10.5 7.7.3.3 3.4 2.5 7 5 3.6 2.4 8.3 5.8 10.6 7.5 2.2 1.6 5.1 3.8 6.5 4.7 7.6 5.4 27 20 30.9 23.2 2.5 2 5.2 4.3 6 4.9 8.3 6.6 12 9.7 15 12.4 1.9 1.8 3.8 3.3 4.1 3.3.3 0 1.7 1 3.1 2.2 1.4 1.3 3.4 3 4.4 3.8 1.6 1.2 15.2 12.4 20.1 16.5 1.5 1.2 2.6 2.1 8.3 6.5 2.5 1.9 4.6 3.8 4.8 4.2.8 1.8 7.2 4.7 11.4 5.3 2.7.4 8.5 0 13.9-1 15.4-2.6 16.3-2.8 18.4-3.1 1.1-.1 4.9-.7 8.5-1.4 3.6-.6 8.1-1.3 10-1.6 5.2-.7 28.1-4.4 86.5-13.9 8.8-1.5 17.4-2.8 19.1-3.1 21.3-2.8 58-9.6 60.5-11.2 2-1.2 12.3-16.5 32-47.8 16-25.2 35.6-56.2 43.6-68.8 25.5-40.2 24.5-38.4 24-44.1-.3-2.8-1.2-7-2-9.5-2.8-8.4-5.9-18.5-6.2-20-.2-.8-1-3.5-1.8-6-.9-2.5-2.5-7.7-3.6-11.5-2.3-7.6-3.3-9.3-7.1-11.8-1.4-.8-18-6.8-37-13.1-73.8-24.7-88.2-29.7-91.1-31.2-1.7-.8-16.4-9.7-32.7-19.6C308.9 91.9 309 92 299 97.2z"/></svg>